<svg id="intro_illustration" xmlns="http://www.w3.org/2000/svg" xmlns:xlink="http://www.w3.org/1999/xlink" viewBox="0 0 647 716" shape-rendering="geometricPrecision" text-rendering="geometricPrecision" width="647" height="716" style="background-color:transparent"><defs><filter id="intro_illustration-html-filter" x="-400%" width="600%" y="-400%" height="600%"><feGaussianBlur id="intro_illustration-html-filter-drop-shadow-0-blur" in="SourceAlpha" stdDeviation="13,13"/><feOffset id="intro_illustration-html-filter-drop-shadow-0-offset" dx="0" dy="0" result="tmp"/><feFlood id="intro_illustration-html-filter-drop-shadow-0-flood" flood-color="rgba(228,77,38,0.9)"/><feComposite id="intro_illustration-html-filter-drop-shadow-0-composite" operator="in" in2="tmp"/><feMerge id="intro_illustration-html-filter-drop-shadow-0-merge"><feMergeNode id="intro_illustration-html-filter-drop-shadow-0-merge-node-1"/><feMergeNode id="intro_illustration-html-filter-drop-shadow-0-merge-node-2" in="SourceGraphic"/></feMerge></filter><filter id="intro_illustration-css-filter" x="-400%" width="600%" y="-400%" height="600%"><feGaussianBlur id="intro_illustration-css-filter-drop-shadow-0-blur" in="SourceAlpha" stdDeviation="13,13"/><feOffset id="intro_illustration-css-filter-drop-shadow-0-offset" dx="0" dy="0" result="tmp"/><feFlood id="intro_illustration-css-filter-drop-shadow-0-flood" flood-color="rgba(38,77,228,0.9)"/><feComposite id="intro_illustration-css-filter-drop-shadow-0-composite" operator="in" in2="tmp"/><feMerge id="intro_illustration-css-filter-drop-shadow-0-merge"><feMergeNode id="intro_illustration-css-filter-drop-shadow-0-merge-node-1"/><feMergeNode id="intro_illustration-css-filter-drop-shadow-0-merge-node-2" in="SourceGraphic"/></feMerge></filter><filter id="intro_illustration-react-filter" x="-400%" width="600%" y="-400%" height="600%"><feGaussianBlur id="intro_illustration-react-filter-drop-shadow-0-blur" in="SourceAlpha" stdDeviation="13,13"/><feOffset id="intro_illustration-react-filter-drop-shadow-0-offset" dx="0" dy="0" result="tmp"/><feFlood id="intro_illustration-react-filter-drop-shadow-0-flood" flood-color="rgba(0,192,255,0.87)"/><feComposite id="intro_illustration-react-filter-drop-shadow-0-composite" operator="in" in2="tmp"/><feMerge id="intro_illustration-react-filter-drop-shadow-0-merge"><feMergeNode id="intro_illustration-react-filter-drop-shadow-0-merge-node-1"/><feMergeNode id="intro_illustration-react-filter-drop-shadow-0-merge-node-2" in="SourceGraphic"/></feMerge></filter><filter id="intro_illustration-figma-filter" x="-400%" width="600%" y="-400%" height="600%"><feGaussianBlur id="intro_illustration-figma-filter-drop-shadow-0-blur" in="SourceAlpha" stdDeviation="13,13"/><feOffset id="intro_illustration-figma-filter-drop-shadow-0-offset" dx="0" dy="0" result="tmp"/><feFlood id="intro_illustration-figma-filter-drop-shadow-0-flood" flood-color="rgba(13,207,131,0.9)"/><feComposite id="intro_illustration-figma-filter-drop-shadow-0-composite" operator="in" in2="tmp"/><feMerge id="intro_illustration-figma-filter-drop-shadow-0-merge"><feMergeNode id="intro_illustration-figma-filter-drop-shadow-0-merge-node-1"/><feMergeNode id="intro_illustration-figma-filter-drop-shadow-0-merge-node-2" in="SourceGraphic"/></feMerge></filter><filter id="intro_illustration-adobexd-filter" x="-400%" width="600%" y="-400%" height="600%"><feGaussianBlur id="intro_illustration-adobexd-filter-drop-shadow-0-blur" in="SourceAlpha" stdDeviation="13,13"/><feOffset id="intro_illustration-adobexd-filter-drop-shadow-0-offset" dx="0" dy="0" result="tmp"/><feFlood id="intro_illustration-adobexd-filter-drop-shadow-0-flood" flood-color="rgb(255,38,190)"/><feComposite id="intro_illustration-adobexd-filter-drop-shadow-0-composite" operator="in" in2="tmp"/><feMerge id="intro_illustration-adobexd-filter-drop-shadow-0-merge"><feMergeNode id="intro_illustration-adobexd-filter-drop-shadow-0-merge-node-1"/><feMergeNode id="intro_illustration-adobexd-filter-drop-shadow-0-merge-node-2" in="SourceGraphic"/></feMerge></filter></defs><g id="intro_illustration-html" transform="matrix(1 0 0 1 0 -0.264999)" filter="url(#intro_illustration-html-filter)"><path id="intro_illustration-path3" d="M501,156.861L496.809,207.857L477.972,213.53L459.186,207.865L455,156.861L501,156.861Z" fill="rgb(228,77,38)" stroke="none" stroke-width="1"/><path id="intro_illustration-path4" d="M478,209.194L493.221,204.61L496.802,161.031L478,161.031L478,209.194Z" fill="rgb(241,101,41)" stroke="none" stroke-width="1"/><path id="intro_illustration-path5" d="M469.853,173.542L478,173.542L478,167.287L463.56,167.287L463.698,168.965L465.113,186.203L478,186.203L478,179.948L470.38,179.948L469.853,173.542Z" fill="rgb(235,235,235)" stroke="none" stroke-width="1"/><path id="intro_illustration-path6" d="M471.151,189.331L465.371,189.331L466.177,199.153L477.974,202.71L478,202.702L478,196.194L477.975,196.201L471.561,194.32L471.151,189.331Z" fill="rgb(235,235,235)" stroke="none" stroke-width="1"/><path id="intro_illustration-path7" d="M459.28,143L462.206,143L462.206,146.141L464.883,146.141L464.883,143L467.81,143L467.81,152.511L464.884,152.511L464.884,149.326L462.206,149.326L462.206,152.511L459.28,152.511L459.28,143L459.28,143Z" fill="rgb(0,0,0)" stroke="none" stroke-width="1"/><path id="intro_illustration-path8" d="M471.659,146.154L469.083,146.154L469.083,143L477.163,143L477.163,146.154L474.586,146.154L474.586,152.511L471.659,152.511L471.659,146.154L471.659,146.154L471.659,146.154Z" fill="rgb(0,0,0)" stroke="none" stroke-width="1"/><path id="intro_illustration-path9" d="M478.446,143L481.497,143L483.374,146.342L485.249,143L488.302,143L488.302,152.511L485.388,152.511L485.388,147.797L483.374,151.178L483.324,151.178L481.309,147.797L481.309,152.511L478.446,152.511L478.446,143Z" fill="rgb(0,0,0)" stroke="none" stroke-width="1"/><path id="intro_illustration-path10" d="M489.758,143L492.686,143L492.686,149.367L496.801,149.367L496.801,152.511L489.758,152.511L489.758,143L489.758,143Z" fill="rgb(0,0,0)" stroke="none" stroke-width="1"/><path id="intro_illustration-path11" d="M477.98,186.203L485.072,186.203L484.403,194.316L477.98,196.199L477.98,202.707L489.786,199.153L489.872,198.096L491.226,181.628L491.366,179.948L477.98,179.948L477.98,186.203Z" fill="rgb(255,255,255)" stroke="none" stroke-width="1"/><path id="intro_illustration-path12" d="M477.98,173.527L477.98,173.542L491.89,173.542L492.006,172.136L492.268,168.965L492.406,167.287L477.98,167.287L477.98,173.527L477.98,173.527Z" fill="rgb(255,255,255)" stroke="none" stroke-width="1"/></g><g id="intro_illustration-css" filter="url(#intro_illustration-css-filter)"><path id="intro_illustration-path13" d="M72.2428,451.522L52.418,446.018L48,396.466L96.545,396.466L92.1225,446.01L72.2428,451.522Z" fill="rgb(38,77,228)" stroke="none" stroke-width="1"/><path id="intro_illustration-path14" d="M88.3363,442.855L92.1155,400.518L72.2725,400.518L72.2725,447.309L88.3363,442.855Z" fill="rgb(41,101,241)" stroke="none" stroke-width="1"/><path id="intro_illustration-path15" d="M58.1281,418.896L58.6727,424.973L72.2725,424.973L72.2725,418.896L58.1281,418.896Z" fill="rgb(235,235,235)" stroke="none" stroke-width="1"/><path id="intro_illustration-path16" d="M57.0335,406.595L57.5859,412.673L72.2726,412.673L72.2726,406.595L57.0335,406.595Z" fill="rgb(235,235,235)" stroke="none" stroke-width="1"/><path id="intro_illustration-path17" d="M72.2725,434.679L72.2459,434.686L65.4777,432.859L65.0449,428.012L58.9442,428.012L59.7956,437.554L72.2446,441.01L72.2725,441.002L72.2725,434.679Z" fill="rgb(235,235,235)" stroke="none" stroke-width="1"/><path id="intro_illustration-path18" d="M59.4248,383L66.7852,383L66.7852,386.078L62.5029,386.078L62.5029,389.156L66.7856,389.156L66.7856,392.234L59.4248,392.234L59.4248,383Z" fill="rgb(0,0,0)" stroke="none" stroke-width="1"/><path id="intro_illustration-path19" d="M68.2576,383L75.6183,383L75.6183,385.677L71.3358,385.677L71.3358,386.212L75.6183,386.212L75.6183,392.368L68.2578,392.368L68.2578,389.557L72.5403,389.557L72.5403,389.022L68.2574,389.022L68.2574,383L68.2576,383Z" fill="rgb(0,0,0)" stroke="none" stroke-width="1"/><path id="intro_illustration-path20" d="M77.0905,383L84.4511,383L84.4511,385.677L80.1687,385.677L80.1687,386.212L84.4511,386.212L84.4511,392.368L77.0905,392.368L77.0905,389.557L81.373,389.557L81.373,389.022L77.0907,389.022L77.0907,383L77.0905,383Z" fill="rgb(0,0,0)" stroke="none" stroke-width="1"/><path id="intro_illustration-path21" d="M86.3783,418.896L87.4753,406.595L72.2517,406.595L72.2517,412.673L80.8151,412.673L80.2621,418.896L72.2517,418.896L72.2517,424.973L79.7352,424.973L79.0296,432.855L72.2515,434.684L72.2515,441.007L84.7104,437.554L84.8017,436.527L86.23,420.528L86.3783,418.896Z" fill="rgb(255,255,255)" stroke="none" stroke-width="1"/></g><g id="intro_illustration-react" transform="matrix(1 0 0 1 0 -0.381008)" filter="url(#intro_illustration-react-filter)"><path id="intro_illustration-path22" d="M137.886,87.6089C141.918,87.6089,145.187,84.3401,145.187,80.3079C145.187,76.2756,141.918,73.0068,137.886,73.0068C133.854,73.0068,130.585,76.2756,130.585,80.3079C130.585,84.3401,133.854,87.6089,137.886,87.6089Z" fill="rgb(0,216,255)" stroke="none" stroke-width="1"/><path id="intro_illustration-path23" d="M137.886,97.0476C129.11,97.2598,120.357,96.0769,111.952,93.5431C108.07,92.3124,104.449,90.3737,101.273,87.8249C100.06,86.9542,99.0509,85.8316,98.3134,84.534C97.5759,83.2365,97.1279,81.7948,97,80.3078C97,75.4803,102.303,70.7493,111.187,67.6537C119.816,64.9107,128.832,63.5813,137.886,63.7169C146.818,63.5921,155.713,64.8975,164.234,67.5836C167.973,68.7756,171.471,70.6206,174.566,73.033C175.757,73.8631,176.752,74.9451,177.479,76.2023C178.205,77.4594,178.647,78.861,178.771,80.3078C178.771,85.325,172.843,90.4095,163.293,93.5693C155.052,96.0207,146.483,97.1937,137.886,97.0476ZM137.886,67.2098C129.224,67.094,120.599,68.3578,112.335,70.9537C104.158,73.807,100.493,77.7086,100.493,80.299C100.493,83.0092,104.432,87.27,113.083,90.2284C121.123,92.6402,129.494,93.7629,137.886,93.5547C146.111,93.7018,154.31,92.5889,162.198,90.2547C171.178,87.2788,175.267,83.0121,175.267,80.3078C175.12,79.3798,174.781,78.4924,174.274,77.7017C173.766,76.911,173.1,76.2342,172.317,75.714C169.548,73.5737,166.423,71.9386,163.086,70.8836C154.935,68.3246,146.428,67.0844,137.886,67.2098Z" fill="rgb(0,216,255)" stroke="none" stroke-width="1"/><path id="intro_illustration-path24" d="M121.298,116.722C119.935,116.754,118.589,116.423,117.396,115.765C113.214,113.352,111.766,106.396,113.521,97.1528C115.456,88.3071,118.809,79.8327,123.45,72.0577C127.804,64.2576,133.377,57.2043,139.959,51.1651C142.86,48.5213,146.206,46.4123,149.842,44.9359C151.157,44.3195,152.592,44,154.044,44C155.497,44,156.932,44.3195,158.247,44.9359C162.595,47.4416,164.035,55.1164,162.005,64.967C160.01,73.3327,156.744,81.343,152.321,88.7186C148.121,96.4266,142.723,103.419,136.329,109.433C133.323,112.181,129.835,114.348,126.041,115.826C124.521,116.39,122.918,116.693,121.298,116.722ZM126.476,73.7924C122.049,81.2375,118.835,89.3398,116.955,97.7953C115.34,106.308,116.891,111.428,119.146,112.73C121.482,114.082,127.153,112.8,134.04,106.784C140.143,101.022,145.296,94.3293,149.305,86.9547C153.542,79.9034,156.675,72.245,158.594,64.2456C160.504,54.9733,158.854,49.2961,156.512,47.9468C155.634,47.6105,154.696,47.4599,153.757,47.5047C152.818,47.5494,151.899,47.7885,151.057,48.2068C147.82,49.5424,144.844,51.4386,142.266,53.8081C135.978,59.5928,130.654,66.3452,126.496,73.81L126.476,73.7924Z" fill="rgb(0,216,255)" stroke="none" stroke-width="1"/><path id="intro_illustration-path25" d="M154.465,116.76C150.508,116.76,145.482,114.366,140.248,109.865C133.551,103.771,127.883,96.6339,123.465,88.7302C118.882,81.0622,115.555,72.7104,113.611,63.9914C112.768,60.1554,112.612,56.2003,113.15,52.3098C113.274,50.8665,113.714,49.4681,114.437,48.2132C115.161,46.9583,116.151,45.8774,117.338,45.0467C121.681,42.5323,129.049,45.1168,136.569,51.7929C142.82,57.6985,148.129,64.5279,152.31,72.043C156.89,79.5319,160.251,87.7008,162.268,96.2444C163.148,100.221,163.283,104.326,162.668,108.352C162.522,109.837,162.056,111.273,161.303,112.561C160.55,113.849,159.528,114.958,158.305,115.814C157.132,116.464,155.806,116.791,154.465,116.76ZM126.488,86.9721C130.726,94.5255,136.14,101.356,142.526,107.208C149.094,112.859,154.304,114.073,156.544,112.756C158.881,111.398,160.604,105.855,158.828,96.8869C156.883,88.73,153.659,80.9324,149.275,73.7835C145.286,66.5909,140.219,60.0514,134.25,54.392C127.171,48.1073,121.429,46.7026,119.09,48.0577C118.361,48.6502,117.763,49.3874,117.333,50.2228C116.903,51.0582,116.651,51.9737,116.593,52.9114C116.129,56.3811,116.28,59.9055,117.04,63.3226C118.91,71.6608,122.1,79.6466,126.49,86.9779L126.488,86.9721Z" fill="rgb(0,216,255)" stroke="none" stroke-width="1"/></g><g id="intro_illustration-figma" filter="url(#intro_illustration-figma-filter)"><path id="intro_illustration-path26" d="M410.333,664C414.933,664,418.667,660.267,418.667,655.667L418.667,647.333L410.333,647.333C405.733,647.333,402,651.067,402,655.667C402,660.267,405.733,664,410.333,664Z" fill="rgb(10,207,131)" stroke="none" stroke-width="1"/><path id="intro_illustration-path27" d="M402,639C402,634.4,405.733,630.667,410.333,630.667L418.667,630.667L418.667,647.334L410.333,647.334C405.733,647.334,402,643.6,402,639Z" fill="rgb(162,89,255)" stroke="none" stroke-width="1"/><path id="intro_illustration-path28" d="M402,622.333C402,617.733,405.733,614,410.333,614L418.667,614L418.667,630.667L410.333,630.667C405.733,630.667,402,626.933,402,622.333Z" fill="rgb(242,78,30)" stroke="none" stroke-width="1"/><path id="intro_illustration-path29" d="M418.667,614L427,614C431.6,614,435.333,617.733,435.333,622.333C435.333,626.933,431.6,630.667,427,630.667L418.667,630.667L418.667,614Z" fill="rgb(255,114,98)" stroke="none" stroke-width="1"/><path id="intro_illustration-path30" d="M435.333,639C435.333,643.6,431.6,647.334,427,647.334C422.4,647.334,418.667,643.6,418.667,639C418.667,634.4,422.4,630.667,427,630.667C431.6,630.667,435.333,634.4,435.333,639Z" fill="rgb(26,188,254)" stroke="none" stroke-width="1"/></g><g id="intro_illustration-adobexd" filter="url(#intro_illustration-adobexd-filter)"><path id="intro_illustration-path31" d="M589.179,585.594L556.861,585.594C551.961,585.594,548,581.648,548,576.768L548,545.826C548,540.946,551.961,537,556.861,537L589.179,537C594.078,537,598.04,540.946,598.04,545.826L598.04,576.768C598.04,581.648,594.078,585.594,589.179,585.594Z" fill="rgb(255,38,190)" stroke="none" stroke-width="1"/><path id="intro_illustration-path32" d="M588.386,583.517L557.653,583.517C553.483,583.517,550.085,580.132,550.085,575.979L550.085,546.615C550.085,542.462,553.483,539.077,557.653,539.077L588.365,539.077C592.556,539.077,595.934,542.462,595.934,546.615L595.934,575.958C595.955,580.132,592.556,583.517,588.386,583.517Z" fill="rgb(46,0,31)" stroke="none" stroke-width="1"/><path id="intro_illustration-path33" d="M567.786,559.74L573.624,570.912C573.729,571.078,573.666,571.244,573.499,571.244L569.871,571.244C569.642,571.244,569.538,571.182,569.434,570.974C568.099,568.233,566.744,565.492,565.347,562.543L565.305,562.543C564.054,565.326,562.678,568.254,561.344,570.995C561.24,571.161,561.135,571.224,560.969,571.224L557.528,571.224C557.32,571.224,557.299,571.057,557.403,570.933L563.116,560.093L557.591,549.128C557.466,548.962,557.591,548.837,557.716,548.837L561.302,548.837C561.511,548.837,561.594,548.879,561.677,549.066C562.991,551.807,564.325,554.631,565.576,557.393L565.618,557.393C566.827,554.652,568.162,551.807,569.454,549.086C569.559,548.92,569.621,548.816,569.83,548.816L573.187,548.816C573.353,548.816,573.416,548.941,573.312,549.107L567.786,559.74ZM574.646,563.125C574.646,558.286,577.878,554.506,583.007,554.506C583.445,554.506,583.674,554.506,584.091,554.548L584.091,549.045C584.091,548.92,584.195,548.837,584.3,548.837L587.594,548.837C587.761,548.837,587.802,548.899,587.802,549.003L587.802,568.067C587.802,568.628,587.802,569.334,587.907,570.102C587.907,570.227,587.865,570.268,587.74,570.331C585.989,571.161,584.154,571.535,582.402,571.535C577.878,571.556,574.646,568.773,574.646,563.125ZM584.091,557.808C583.799,557.684,583.382,557.601,582.882,557.601C580.255,557.601,578.42,559.615,578.42,562.958C578.42,566.779,580.296,568.316,582.653,568.316C583.153,568.316,583.695,568.254,584.091,568.088L584.091,557.808Z" fill="rgb(255,217,242)" stroke="none" stroke-width="1"/></g><script><![CDATA[(function(s,i,u,o,w,d,t,n,x,e,p){w[o]=w[o]||{};w[o][s]=w[o][s]||[];w[o][s].push(i);e=d.createElementNS(n,t);e.async=true;e.setAttributeNS(x,'href',[u,s,'.','j','s'].join(''));e.setAttributeNS(null,'src',[u,s,'.','j','s'].join(''));p=d.getElementsByTagName(t)[0];p.parentNode.insertBefore(e,p);})('5c7f360c',{"root":"intro_illustration","animations":[{"elements":{"intro_illustration-html":{"transform":{"data":{"t":{"x":-478,"y":-178.264999}},"keys":{"o":[{"t":0,"v":{"x":478,"y":178,"type":"corner"}},{"t":1100,"v":{"x":478,"y":188,"type":"corner"}},{"t":2300,"v":{"x":478,"y":178,"type":"corner"}}]}}},"intro_illustration-css":{"transform":{"data":{"t":{"x":-72.272499,"y":-417}},"keys":{"o":[{"t":0,"v":{"x":72.272499,"y":417,"type":"corner"}},{"t":1100,"v":{"x":72.272499,"y":427,"type":"corner"}},{"t":2300,"v":{"x":72.272499,"y":417,"type":"corner"}}]}}},"intro_illustration-react":{"transform":{"data":{"t":{"x":-137.885498,"y":-80.381008}},"keys":{"o":[{"t":0,"v":{"x":137.885498,"y":80,"type":"corner"}},{"t":1100,"v":{"x":137.885498,"y":90,"type":"corner"}},{"t":2300,"v":{"x":137.885498,"y":80,"type":"corner"}}]}}},"intro_illustration-figma":{"transform":{"data":{"t":{"x":-418.666504,"y":-639}},"keys":{"o":[{"t":0,"v":{"x":418.666504,"y":639,"type":"corner"}},{"t":1100,"v":{"x":418.666504,"y":649,"type":"corner"}},{"t":2300,"v":{"x":418.666504,"y":639,"type":"corner"}}]}}},"intro_illustration-adobexd":{"transform":{"data":{"t":{"x":-573.019989,"y":-561.296997}},"keys":{"o":[{"t":0,"v":{"x":573.019989,"y":561.296997,"type":"corner"}},{"t":1100,"v":{"x":573.019989,"y":571.3,"type":"corner"}},{"t":2300,"v":{"x":573.019989,"y":561.3,"type":"corner"}}]}}}},"s":"MXDA1MzkxMzg3YThiTTVg4RTc3OGE3Zjg1ODQNzODUwNDg0OTQ2NDY0XMjM4TzdhN2Y4ODdiNWzk4YVM3Zjg1ODQzODKUwSDQ3NDIzOFg3ZjhIhN2I4ODc3RjhhN2Y4PNTg0Qjg5VjM4NTA0NGjQyMzg3YzdmUjgyODMJEMzg1MDQ3NDIzODcS3ODI4YTdiODg4NDc3FOGE3YjM4NTBFN2M3NJzgyODlHN2I0MlczODBg5ODY3YjdiN2EzODUYwRjQ3OTM/"}],"options":"MTDAxMDkxWTM4ODlOOGSE3Nzg4OGEzODUwMzgE4Mk84NTc3N2EzODkzR"},'https://cdn.svgator.com/ply/','__SVGATOR_PLAYER__',window,document,'script','http://www.w3.org/2000/svg','http://www.w3.org/1999/xlink')]]></script></svg>