<svg width="1083" height="271" viewBox="0 0 1083 271" fill="none" xmlns="http://www.w3.org/2000/svg">
<rect x="1010.87" y="31.3266" width="47.1453" height="47.1453" rx="9" transform="rotate(-31.2507 1010.87 31.3266)" stroke="#FF6464" stroke-opacity="0.41" stroke-width="10"/>
<path d="M670.864 181.234C674.176 178.015 679.731 179.588 680.863 184.066L694.446 237.801C695.578 242.279 691.438 246.303 686.994 245.045L633.666 229.941C629.222 228.682 627.807 223.084 631.119 219.865L670.864 181.234Z" fill="#0ACF83" fill-opacity="0.41"/>
<circle r="3.5" transform="matrix(-1 0 0 1 63.5 146.5)" fill="#C4C4C4" fill-opacity="0.38"/>
<circle r="3.5" transform="matrix(-1 0 0 1 83.5 146.5)" fill="#C4C4C4" fill-opacity="0.38"/>
<circle r="3.5" transform="matrix(-1 0 0 1 103.5 146.5)" fill="#C4C4C4" fill-opacity="0.38"/>
<circle r="3.5" transform="matrix(-1 0 0 1 123.5 146.5)" fill="#C4C4C4" fill-opacity="0.38"/>
<circle r="3.5" transform="matrix(-1 0 0 1 143.5 146.5)" fill="#C4C4C4" fill-opacity="0.38"/>
<circle r="3.5" transform="matrix(-1 0 0 1 163.5 146.5)" fill="#C4C4C4" fill-opacity="0.38"/>
<circle r="3.5" transform="matrix(-1 0 0 1 183.5 146.5)" fill="#C4C4C4" fill-opacity="0.38"/>
<circle r="3.5" transform="matrix(-1 0 0 1 203.5 146.5)" fill="#C4C4C4" fill-opacity="0.38"/>
<circle r="3.5" transform="matrix(-1 0 0 1 223.5 146.5)" fill="#C4C4C4" fill-opacity="0.38"/>
<circle r="3.5" transform="matrix(-1 0 0 1 43.5 146.5)" fill="#C4C4C4" fill-opacity="0.38"/>
<circle r="3.5" transform="matrix(-1 0 0 1 23.5 146.5)" fill="#C4C4C4" fill-opacity="0.38"/>
<circle r="3.5" transform="matrix(-1 0 0 1 3.5 146.5)" fill="#C4C4C4" fill-opacity="0.38"/>
<circle r="3.5" transform="matrix(-1 0 0 1 83.5 166.5)" fill="#C4C4C4" fill-opacity="0.38"/>
<circle r="3.5" transform="matrix(-1 0 0 1 103.5 166.5)" fill="#C4C4C4" fill-opacity="0.38"/>
<circle r="3.5" transform="matrix(-1 0 0 1 123.5 166.5)" fill="#C4C4C4" fill-opacity="0.38"/>
<circle r="3.5" transform="matrix(-1 0 0 1 143.5 166.5)" fill="#C4C4C4" fill-opacity="0.38"/>
<circle r="3.5" transform="matrix(-1 0 0 1 163.5 166.5)" fill="#C4C4C4" fill-opacity="0.38"/>
<circle r="3.5" transform="matrix(-1 0 0 1 183.5 166.5)" fill="#C4C4C4" fill-opacity="0.38"/>
<circle r="3.5" transform="matrix(-1 0 0 1 203.5 166.5)" fill="#C4C4C4" fill-opacity="0.38"/>
<circle r="3.5" transform="matrix(-1 0 0 1 223.5 166.5)" fill="#C4C4C4" fill-opacity="0.38"/>
<circle r="3.5" transform="matrix(-1 0 0 1 63.5 166.5)" fill="#C4C4C4" fill-opacity="0.38"/>
<circle r="3.5" transform="matrix(-1 0 0 1 43.5 166.5)" fill="#C4C4C4" fill-opacity="0.38"/>
<circle r="3.5" transform="matrix(-1 0 0 1 23.5 166.5)" fill="#C4C4C4" fill-opacity="0.38"/>
<circle r="3.5" transform="matrix(-1 0 0 1 3.5 166.5)" fill="#C4C4C4" fill-opacity="0.38"/>
<circle r="3.5" transform="matrix(-1 0 0 1 83.5 186.5)" fill="#C4C4C4" fill-opacity="0.38"/>
<circle r="3.5" transform="matrix(-1 0 0 1 103.5 186.5)" fill="#C4C4C4" fill-opacity="0.38"/>
<circle r="3.5" transform="matrix(-1 0 0 1 123.5 186.5)" fill="#C4C4C4" fill-opacity="0.38"/>
<circle r="3.5" transform="matrix(-1 0 0 1 143.5 186.5)" fill="#C4C4C4" fill-opacity="0.38"/>
<circle r="3.5" transform="matrix(-1 0 0 1 163.5 186.5)" fill="#C4C4C4" fill-opacity="0.38"/>
<circle r="3.5" transform="matrix(-1 0 0 1 183.5 186.5)" fill="#C4C4C4" fill-opacity="0.38"/>
<circle r="3.5" transform="matrix(-1 0 0 1 203.5 186.5)" fill="#C4C4C4" fill-opacity="0.38"/>
<circle r="3.5" transform="matrix(-1 0 0 1 223.5 186.5)" fill="#C4C4C4" fill-opacity="0.38"/>
<circle r="3.5" transform="matrix(-1 0 0 1 63.5 186.5)" fill="#C4C4C4" fill-opacity="0.38"/>
<circle r="3.5" transform="matrix(-1 0 0 1 43.5 186.5)" fill="#C4C4C4" fill-opacity="0.38"/>
<circle r="3.5" transform="matrix(-1 0 0 1 23.5 186.5)" fill="#C4C4C4" fill-opacity="0.38"/>
<circle r="3.5" transform="matrix(-1 0 0 1 3.5 186.5)" fill="#C4C4C4" fill-opacity="0.38"/>
<circle r="3.5" transform="matrix(-1 0 0 1 83.5 206.5)" fill="#C4C4C4" fill-opacity="0.38"/>
<circle r="3.5" transform="matrix(-1 0 0 1 103.5 206.5)" fill="#C4C4C4" fill-opacity="0.38"/>
<circle r="3.5" transform="matrix(-1 0 0 1 123.5 206.5)" fill="#C4C4C4" fill-opacity="0.38"/>
<circle r="3.5" transform="matrix(-1 0 0 1 143.5 206.5)" fill="#C4C4C4" fill-opacity="0.38"/>
<circle r="3.5" transform="matrix(-1 0 0 1 163.5 206.5)" fill="#C4C4C4" fill-opacity="0.38"/>
<circle r="3.5" transform="matrix(-1 0 0 1 183.5 206.5)" fill="#C4C4C4" fill-opacity="0.38"/>
<circle r="3.5" transform="matrix(-1 0 0 1 203.5 206.5)" fill="#C4C4C4" fill-opacity="0.38"/>
<circle r="3.5" transform="matrix(-1 0 0 1 223.5 206.5)" fill="#C4C4C4" fill-opacity="0.38"/>
<circle r="3.5" transform="matrix(-1 0 0 1 63.5 206.5)" fill="#C4C4C4" fill-opacity="0.38"/>
<circle r="3.5" transform="matrix(-1 0 0 1 43.5 206.5)" fill="#C4C4C4" fill-opacity="0.38"/>
<circle r="3.5" transform="matrix(-1 0 0 1 23.5 206.5)" fill="#C4C4C4" fill-opacity="0.38"/>
<circle r="3.5" transform="matrix(-1 0 0 1 3.5 206.5)" fill="#C4C4C4" fill-opacity="0.38"/>
<circle r="3.5" transform="matrix(-1 0 0 1 83.5 226.5)" fill="#C4C4C4" fill-opacity="0.38"/>
<circle r="3.5" transform="matrix(-1 0 0 1 83.5 246.5)" fill="#C4C4C4" fill-opacity="0.38"/>
<circle r="3.5" transform="matrix(-1 0 0 1 83.5 266.5)" fill="#C4C4C4" fill-opacity="0.38"/>
<circle r="3.5" transform="matrix(-1 0 0 1 103.5 226.5)" fill="#C4C4C4" fill-opacity="0.38"/>
<circle r="3.5" transform="matrix(-1 0 0 1 103.5 246.5)" fill="#C4C4C4" fill-opacity="0.38"/>
<circle r="3.5" transform="matrix(-1 0 0 1 103.5 266.5)" fill="#C4C4C4" fill-opacity="0.38"/>
<circle r="3.5" transform="matrix(-1 0 0 1 123.5 226.5)" fill="#C4C4C4" fill-opacity="0.38"/>
<circle r="3.5" transform="matrix(-1 0 0 1 123.5 246.5)" fill="#C4C4C4" fill-opacity="0.38"/>
<circle r="3.5" transform="matrix(-1 0 0 1 123.5 266.5)" fill="#C4C4C4" fill-opacity="0.38"/>
<circle r="3.5" transform="matrix(-1 0 0 1 143.5 226.5)" fill="#C4C4C4" fill-opacity="0.38"/>
<circle r="3.5" transform="matrix(-1 0 0 1 143.5 246.5)" fill="#C4C4C4" fill-opacity="0.38"/>
<circle r="3.5" transform="matrix(-1 0 0 1 143.5 266.5)" fill="#C4C4C4" fill-opacity="0.38"/>
<circle r="3.5" transform="matrix(-1 0 0 1 163.5 226.5)" fill="#C4C4C4" fill-opacity="0.38"/>
<circle r="3.5" transform="matrix(-1 0 0 1 163.5 246.5)" fill="#C4C4C4" fill-opacity="0.38"/>
<circle r="3.5" transform="matrix(-1 0 0 1 163.5 266.5)" fill="#C4C4C4" fill-opacity="0.38"/>
<circle r="3.5" transform="matrix(-1 0 0 1 183.5 226.5)" fill="#C4C4C4" fill-opacity="0.38"/>
<circle r="3.5" transform="matrix(-1 0 0 1 183.5 246.5)" fill="#C4C4C4" fill-opacity="0.38"/>
<circle r="3.5" transform="matrix(-1 0 0 1 183.5 266.5)" fill="#C4C4C4" fill-opacity="0.38"/>
<circle r="3.5" transform="matrix(-1 0 0 1 203.5 226.5)" fill="#C4C4C4" fill-opacity="0.38"/>
<circle r="3.5" transform="matrix(-1 0 0 1 203.5 246.5)" fill="#C4C4C4" fill-opacity="0.38"/>
<circle r="3.5" transform="matrix(-1 0 0 1 203.5 266.5)" fill="#C4C4C4" fill-opacity="0.38"/>
<circle r="3.5" transform="matrix(-1 0 0 1 223.5 226.5)" fill="#C4C4C4" fill-opacity="0.38"/>
<circle r="3.5" transform="matrix(-1 0 0 1 223.5 246.5)" fill="#C4C4C4" fill-opacity="0.38"/>
<circle r="3.5" transform="matrix(-1 0 0 1 223.5 266.5)" fill="#C4C4C4" fill-opacity="0.38"/>
<circle r="3.5" transform="matrix(-1 0 0 1 63.5 226.5)" fill="#C4C4C4" fill-opacity="0.38"/>
<circle r="3.5" transform="matrix(-1 0 0 1 63.5 246.5)" fill="#C4C4C4" fill-opacity="0.38"/>
<circle r="3.5" transform="matrix(-1 0 0 1 63.5 266.5)" fill="#C4C4C4" fill-opacity="0.38"/>
<circle r="3.5" transform="matrix(-1 0 0 1 43.5 226.5)" fill="#C4C4C4" fill-opacity="0.38"/>
<circle r="3.5" transform="matrix(-1 0 0 1 43.5 246.5)" fill="#C4C4C4" fill-opacity="0.38"/>
<circle r="3.5" transform="matrix(-1 0 0 1 43.5 266.5)" fill="#C4C4C4" fill-opacity="0.38"/>
<circle r="3.5" transform="matrix(-1 0 0 1 23.5 226.5)" fill="#C4C4C4" fill-opacity="0.38"/>
<circle r="3.5" transform="matrix(-1 0 0 1 23.5 246.5)" fill="#C4C4C4" fill-opacity="0.38"/>
<circle r="3.5" transform="matrix(-1 0 0 1 23.5 266.5)" fill="#C4C4C4" fill-opacity="0.38"/>
<circle r="3.5" transform="matrix(-1 0 0 1 3.5 226.5)" fill="#C4C4C4" fill-opacity="0.38"/>
<circle r="3.5" transform="matrix(-1 0 0 1 3.5 246.5)" fill="#C4C4C4" fill-opacity="0.38"/>
<circle r="3.5" transform="matrix(-1 0 0 1 3.5 266.5)" fill="#C4C4C4" fill-opacity="0.38"/>
</svg>
