<svg width="416" height="414" viewBox="0 0 416 414" fill="none" xmlns="http://www.w3.org/2000/svg">
<path d="M39.7742 329.342C41.3599 325.004 47.047 324.009 50.0111 327.551L85.58 370.058C88.544 373.601 86.562 379.023 82.0123 379.819L27.4156 389.369C22.8659 390.165 19.1608 385.737 20.7464 381.399L39.7742 329.342Z" fill="#A12EFC" fill-opacity="0.41"/>
<circle r="3.5" transform="matrix(-1 0 0 1 101.5 35.5)" fill="#C4C4C4" fill-opacity="0.38"/>
<circle r="3.5" transform="matrix(-1 0 0 1 121.5 35.5)" fill="#C4C4C4" fill-opacity="0.38"/>
<circle r="3.5" transform="matrix(-1 0 0 1 141.5 35.5)" fill="#C4C4C4" fill-opacity="0.38"/>
<circle r="3.5" transform="matrix(-1 0 0 1 161.5 35.5)" fill="#C4C4C4" fill-opacity="0.38"/>
<circle r="3.5" transform="matrix(-1 0 0 1 181.5 35.5)" fill="#C4C4C4" fill-opacity="0.38"/>
<circle r="3.5" transform="matrix(-1 0 0 1 201.5 35.5)" fill="#C4C4C4" fill-opacity="0.38"/>
<circle r="3.5" transform="matrix(-1 0 0 1 221.5 35.5)" fill="#C4C4C4" fill-opacity="0.38"/>
<circle r="3.5" transform="matrix(-1 0 0 1 241.5 35.5)" fill="#C4C4C4" fill-opacity="0.38"/>
<circle r="3.5" transform="matrix(-1 0 0 1 261.5 35.5)" fill="#C4C4C4" fill-opacity="0.38"/>
<circle r="3.5" transform="matrix(-1 0 0 1 81.5 35.5)" fill="#C4C4C4" fill-opacity="0.38"/>
<circle r="3.5" transform="matrix(-1 0 0 1 61.5 35.5)" fill="#C4C4C4" fill-opacity="0.38"/>
<circle r="3.5" transform="matrix(-1 0 0 1 41.5 35.5)" fill="#C4C4C4" fill-opacity="0.38"/>
<circle r="3.5" transform="matrix(-1 0 0 1 121.5 55.5)" fill="#C4C4C4" fill-opacity="0.38"/>
<circle r="3.5" transform="matrix(-1 0 0 1 141.5 55.5)" fill="#C4C4C4" fill-opacity="0.38"/>
<circle r="3.5" transform="matrix(-1 0 0 1 161.5 55.5)" fill="#C4C4C4" fill-opacity="0.38"/>
<circle r="3.5" transform="matrix(-1 0 0 1 181.5 55.5)" fill="#C4C4C4" fill-opacity="0.38"/>
<circle r="3.5" transform="matrix(-1 0 0 1 201.5 55.5)" fill="#C4C4C4" fill-opacity="0.38"/>
<circle r="3.5" transform="matrix(-1 0 0 1 221.5 55.5)" fill="#C4C4C4" fill-opacity="0.38"/>
<circle r="3.5" transform="matrix(-1 0 0 1 241.5 55.5)" fill="#C4C4C4" fill-opacity="0.38"/>
<circle r="3.5" transform="matrix(-1 0 0 1 261.5 55.5)" fill="#C4C4C4" fill-opacity="0.38"/>
<circle r="3.5" transform="matrix(-1 0 0 1 101.5 55.5)" fill="#C4C4C4" fill-opacity="0.38"/>
<circle r="3.5" transform="matrix(-1 0 0 1 81.5 55.5)" fill="#C4C4C4" fill-opacity="0.38"/>
<circle r="3.5" transform="matrix(-1 0 0 1 61.5 55.5)" fill="#C4C4C4" fill-opacity="0.38"/>
<circle r="3.5" transform="matrix(-1 0 0 1 41.5 55.5)" fill="#C4C4C4" fill-opacity="0.38"/>
<circle r="3.5" transform="matrix(-1 0 0 1 121.5 75.5)" fill="#C4C4C4" fill-opacity="0.38"/>
<circle r="3.5" transform="matrix(-1 0 0 1 141.5 75.5)" fill="#C4C4C4" fill-opacity="0.38"/>
<circle r="3.5" transform="matrix(-1 0 0 1 161.5 75.5)" fill="#C4C4C4" fill-opacity="0.38"/>
<circle r="3.5" transform="matrix(-1 0 0 1 181.5 75.5)" fill="#C4C4C4" fill-opacity="0.38"/>
<circle r="3.5" transform="matrix(-1 0 0 1 201.5 75.5)" fill="#C4C4C4" fill-opacity="0.38"/>
<circle r="3.5" transform="matrix(-1 0 0 1 221.5 75.5)" fill="#C4C4C4" fill-opacity="0.38"/>
<circle r="3.5" transform="matrix(-1 0 0 1 241.5 75.5)" fill="#C4C4C4" fill-opacity="0.38"/>
<circle r="3.5" transform="matrix(-1 0 0 1 261.5 75.5)" fill="#C4C4C4" fill-opacity="0.38"/>
<circle r="3.5" transform="matrix(-1 0 0 1 101.5 75.5)" fill="#C4C4C4" fill-opacity="0.38"/>
<circle r="3.5" transform="matrix(-1 0 0 1 81.5 75.5)" fill="#C4C4C4" fill-opacity="0.38"/>
<circle r="3.5" transform="matrix(-1 0 0 1 61.5 75.5)" fill="#C4C4C4" fill-opacity="0.38"/>
<circle r="3.5" transform="matrix(-1 0 0 1 41.5 75.5)" fill="#C4C4C4" fill-opacity="0.38"/>
<circle r="3.5" transform="matrix(-1 0 0 1 121.5 95.5)" fill="#C4C4C4" fill-opacity="0.38"/>
<circle r="3.5" transform="matrix(-1 0 0 1 141.5 95.5)" fill="#C4C4C4" fill-opacity="0.38"/>
<circle r="3.5" transform="matrix(-1 0 0 1 161.5 95.5)" fill="#C4C4C4" fill-opacity="0.38"/>
<circle r="3.5" transform="matrix(-1 0 0 1 181.5 95.5)" fill="#C4C4C4" fill-opacity="0.38"/>
<circle r="3.5" transform="matrix(-1 0 0 1 201.5 95.5)" fill="#C4C4C4" fill-opacity="0.38"/>
<circle r="3.5" transform="matrix(-1 0 0 1 221.5 95.5)" fill="#C4C4C4" fill-opacity="0.38"/>
<circle r="3.5" transform="matrix(-1 0 0 1 241.5 95.5)" fill="#C4C4C4" fill-opacity="0.38"/>
<circle r="3.5" transform="matrix(-1 0 0 1 261.5 95.5)" fill="#C4C4C4" fill-opacity="0.38"/>
<circle r="3.5" transform="matrix(-1 0 0 1 101.5 95.5)" fill="#C4C4C4" fill-opacity="0.38"/>
<circle r="3.5" transform="matrix(-1 0 0 1 81.5 95.5)" fill="#C4C4C4" fill-opacity="0.38"/>
<circle r="3.5" transform="matrix(-1 0 0 1 61.5 95.5)" fill="#C4C4C4" fill-opacity="0.38"/>
<circle r="3.5" transform="matrix(-1 0 0 1 41.5 95.5)" fill="#C4C4C4" fill-opacity="0.38"/>
<circle r="3.5" transform="matrix(-1 0 0 1 121.5 115.5)" fill="#C4C4C4" fill-opacity="0.38"/>
<circle r="3.5" transform="matrix(-1 0 0 1 121.5 135.5)" fill="#C4C4C4" fill-opacity="0.38"/>
<circle r="3.5" transform="matrix(-1 0 0 1 121.5 155.5)" fill="#C4C4C4" fill-opacity="0.38"/>
<circle r="3.5" transform="matrix(-1 0 0 1 141.5 115.5)" fill="#C4C4C4" fill-opacity="0.38"/>
<circle r="3.5" transform="matrix(-1 0 0 1 141.5 135.5)" fill="#C4C4C4" fill-opacity="0.38"/>
<circle r="3.5" transform="matrix(-1 0 0 1 141.5 155.5)" fill="#C4C4C4" fill-opacity="0.38"/>
<circle r="3.5" transform="matrix(-1 0 0 1 161.5 115.5)" fill="#C4C4C4" fill-opacity="0.38"/>
<circle r="3.5" transform="matrix(-1 0 0 1 161.5 135.5)" fill="#C4C4C4" fill-opacity="0.38"/>
<circle r="3.5" transform="matrix(-1 0 0 1 161.5 155.5)" fill="#C4C4C4" fill-opacity="0.38"/>
<circle r="3.5" transform="matrix(-1 0 0 1 181.5 115.5)" fill="#C4C4C4" fill-opacity="0.38"/>
<circle r="3.5" transform="matrix(-1 0 0 1 181.5 135.5)" fill="#C4C4C4" fill-opacity="0.38"/>
<circle r="3.5" transform="matrix(-1 0 0 1 181.5 155.5)" fill="#C4C4C4" fill-opacity="0.38"/>
<circle r="3.5" transform="matrix(-1 0 0 1 201.5 115.5)" fill="#C4C4C4" fill-opacity="0.38"/>
<circle r="3.5" transform="matrix(-1 0 0 1 201.5 135.5)" fill="#C4C4C4" fill-opacity="0.38"/>
<circle r="3.5" transform="matrix(-1 0 0 1 201.5 155.5)" fill="#C4C4C4" fill-opacity="0.38"/>
<circle r="3.5" transform="matrix(-1 0 0 1 221.5 115.5)" fill="#C4C4C4" fill-opacity="0.38"/>
<circle r="3.5" transform="matrix(-1 0 0 1 221.5 135.5)" fill="#C4C4C4" fill-opacity="0.38"/>
<circle r="3.5" transform="matrix(-1 0 0 1 221.5 155.5)" fill="#C4C4C4" fill-opacity="0.38"/>
<circle r="3.5" transform="matrix(-1 0 0 1 241.5 115.5)" fill="#C4C4C4" fill-opacity="0.38"/>
<circle r="3.5" transform="matrix(-1 0 0 1 241.5 135.5)" fill="#C4C4C4" fill-opacity="0.38"/>
<circle r="3.5" transform="matrix(-1 0 0 1 241.5 155.5)" fill="#C4C4C4" fill-opacity="0.38"/>
<circle r="3.5" transform="matrix(-1 0 0 1 261.5 115.5)" fill="#C4C4C4" fill-opacity="0.38"/>
<circle r="3.5" transform="matrix(-1 0 0 1 261.5 135.5)" fill="#C4C4C4" fill-opacity="0.38"/>
<circle r="3.5" transform="matrix(-1 0 0 1 261.5 155.5)" fill="#C4C4C4" fill-opacity="0.38"/>
<circle r="3.5" transform="matrix(-1 0 0 1 101.5 115.5)" fill="#C4C4C4" fill-opacity="0.38"/>
<circle r="3.5" transform="matrix(-1 0 0 1 101.5 135.5)" fill="#C4C4C4" fill-opacity="0.38"/>
<circle r="3.5" transform="matrix(-1 0 0 1 101.5 155.5)" fill="#C4C4C4" fill-opacity="0.38"/>
<circle r="3.5" transform="matrix(-1 0 0 1 81.5 115.5)" fill="#C4C4C4" fill-opacity="0.38"/>
<circle r="3.5" transform="matrix(-1 0 0 1 81.5 135.5)" fill="#C4C4C4" fill-opacity="0.38"/>
<circle r="3.5" transform="matrix(-1 0 0 1 81.5 155.5)" fill="#C4C4C4" fill-opacity="0.38"/>
<circle r="3.5" transform="matrix(-1 0 0 1 61.5 115.5)" fill="#C4C4C4" fill-opacity="0.38"/>
<circle r="3.5" transform="matrix(-1 0 0 1 61.5 135.5)" fill="#C4C4C4" fill-opacity="0.38"/>
<circle r="3.5" transform="matrix(-1 0 0 1 61.5 155.5)" fill="#C4C4C4" fill-opacity="0.38"/>
<circle r="3.5" transform="matrix(-1 0 0 1 41.5 115.5)" fill="#C4C4C4" fill-opacity="0.38"/>
<circle r="3.5" transform="matrix(-1 0 0 1 41.5 135.5)" fill="#C4C4C4" fill-opacity="0.38"/>
<circle r="3.5" transform="matrix(-1 0 0 1 41.5 155.5)" fill="#C4C4C4" fill-opacity="0.38"/>
<rect x="342.917" y="46.45" width="47.1453" height="47.1453" rx="23.5726" transform="rotate(-56.9862 342.917 46.45)" stroke="#FFD464" stroke-opacity="0.39" stroke-width="10"/>
</svg>
