<svg width="227" height="127" viewBox="0 0 227 127" fill="none" xmlns="http://www.w3.org/2000/svg">
<circle r="3.5" transform="matrix(-1 0 0 1 63.5 3.5)" fill="#C4C4C4" fill-opacity="0.38"/>
<circle r="3.5" transform="matrix(-1 0 0 1 83.5 3.5)" fill="#C4C4C4" fill-opacity="0.38"/>
<circle r="3.5" transform="matrix(-1 0 0 1 103.5 3.5)" fill="#C4C4C4" fill-opacity="0.38"/>
<circle r="3.5" transform="matrix(-1 0 0 1 123.5 3.5)" fill="#C4C4C4" fill-opacity="0.38"/>
<circle r="3.5" transform="matrix(-1 0 0 1 143.5 3.5)" fill="#C4C4C4" fill-opacity="0.38"/>
<circle r="3.5" transform="matrix(-1 0 0 1 163.5 3.5)" fill="#C4C4C4" fill-opacity="0.38"/>
<circle r="3.5" transform="matrix(-1 0 0 1 183.5 3.5)" fill="#C4C4C4" fill-opacity="0.38"/>
<circle r="3.5" transform="matrix(-1 0 0 1 203.5 3.5)" fill="#C4C4C4" fill-opacity="0.38"/>
<circle r="3.5" transform="matrix(-1 0 0 1 223.5 3.5)" fill="#C4C4C4" fill-opacity="0.38"/>
<circle r="3.5" transform="matrix(-1 0 0 1 43.5 3.5)" fill="#C4C4C4" fill-opacity="0.38"/>
<circle r="3.5" transform="matrix(-1 0 0 1 23.5 3.5)" fill="#C4C4C4" fill-opacity="0.38"/>
<circle r="3.5" transform="matrix(-1 0 0 1 3.5 3.5)" fill="#C4C4C4" fill-opacity="0.38"/>
<circle r="3.5" transform="matrix(-1 0 0 1 83.5 23.5)" fill="#C4C4C4" fill-opacity="0.38"/>
<circle r="3.5" transform="matrix(-1 0 0 1 103.5 23.5)" fill="#C4C4C4" fill-opacity="0.38"/>
<circle r="3.5" transform="matrix(-1 0 0 1 123.5 23.5)" fill="#C4C4C4" fill-opacity="0.38"/>
<circle r="3.5" transform="matrix(-1 0 0 1 143.5 23.5)" fill="#C4C4C4" fill-opacity="0.38"/>
<circle r="3.5" transform="matrix(-1 0 0 1 163.5 23.5)" fill="#C4C4C4" fill-opacity="0.38"/>
<circle r="3.5" transform="matrix(-1 0 0 1 183.5 23.5)" fill="#C4C4C4" fill-opacity="0.38"/>
<circle r="3.5" transform="matrix(-1 0 0 1 203.5 23.5)" fill="#C4C4C4" fill-opacity="0.38"/>
<circle r="3.5" transform="matrix(-1 0 0 1 223.5 23.5)" fill="#C4C4C4" fill-opacity="0.38"/>
<circle r="3.5" transform="matrix(-1 0 0 1 63.5 23.5)" fill="#C4C4C4" fill-opacity="0.38"/>
<circle r="3.5" transform="matrix(-1 0 0 1 43.5 23.5)" fill="#C4C4C4" fill-opacity="0.38"/>
<circle r="3.5" transform="matrix(-1 0 0 1 23.5 23.5)" fill="#C4C4C4" fill-opacity="0.38"/>
<circle r="3.5" transform="matrix(-1 0 0 1 3.5 23.5)" fill="#C4C4C4" fill-opacity="0.38"/>
<circle r="3.5" transform="matrix(-1 0 0 1 83.5 43.5)" fill="#C4C4C4" fill-opacity="0.38"/>
<circle r="3.5" transform="matrix(-1 0 0 1 103.5 43.5)" fill="#C4C4C4" fill-opacity="0.38"/>
<circle r="3.5" transform="matrix(-1 0 0 1 123.5 43.5)" fill="#C4C4C4" fill-opacity="0.38"/>
<circle r="3.5" transform="matrix(-1 0 0 1 143.5 43.5)" fill="#C4C4C4" fill-opacity="0.38"/>
<circle r="3.5" transform="matrix(-1 0 0 1 163.5 43.5)" fill="#C4C4C4" fill-opacity="0.38"/>
<circle r="3.5" transform="matrix(-1 0 0 1 183.5 43.5)" fill="#C4C4C4" fill-opacity="0.38"/>
<circle r="3.5" transform="matrix(-1 0 0 1 203.5 43.5)" fill="#C4C4C4" fill-opacity="0.38"/>
<circle r="3.5" transform="matrix(-1 0 0 1 223.5 43.5)" fill="#C4C4C4" fill-opacity="0.38"/>
<circle r="3.5" transform="matrix(-1 0 0 1 63.5 43.5)" fill="#C4C4C4" fill-opacity="0.38"/>
<circle r="3.5" transform="matrix(-1 0 0 1 43.5 43.5)" fill="#C4C4C4" fill-opacity="0.38"/>
<circle r="3.5" transform="matrix(-1 0 0 1 23.5 43.5)" fill="#C4C4C4" fill-opacity="0.38"/>
<circle r="3.5" transform="matrix(-1 0 0 1 3.5 43.5)" fill="#C4C4C4" fill-opacity="0.38"/>
<circle r="3.5" transform="matrix(-1 0 0 1 83.5 63.5)" fill="#C4C4C4" fill-opacity="0.38"/>
<circle r="3.5" transform="matrix(-1 0 0 1 103.5 63.5)" fill="#C4C4C4" fill-opacity="0.38"/>
<circle r="3.5" transform="matrix(-1 0 0 1 123.5 63.5)" fill="#C4C4C4" fill-opacity="0.38"/>
<circle r="3.5" transform="matrix(-1 0 0 1 143.5 63.5)" fill="#C4C4C4" fill-opacity="0.38"/>
<circle r="3.5" transform="matrix(-1 0 0 1 163.5 63.5)" fill="#C4C4C4" fill-opacity="0.38"/>
<circle r="3.5" transform="matrix(-1 0 0 1 183.5 63.5)" fill="#C4C4C4" fill-opacity="0.38"/>
<circle r="3.5" transform="matrix(-1 0 0 1 203.5 63.5)" fill="#C4C4C4" fill-opacity="0.38"/>
<circle r="3.5" transform="matrix(-1 0 0 1 223.5 63.5)" fill="#C4C4C4" fill-opacity="0.38"/>
<circle r="3.5" transform="matrix(-1 0 0 1 63.5 63.5)" fill="#C4C4C4" fill-opacity="0.38"/>
<circle r="3.5" transform="matrix(-1 0 0 1 43.5 63.5)" fill="#C4C4C4" fill-opacity="0.38"/>
<circle r="3.5" transform="matrix(-1 0 0 1 23.5 63.5)" fill="#C4C4C4" fill-opacity="0.38"/>
<circle r="3.5" transform="matrix(-1 0 0 1 3.5 63.5)" fill="#C4C4C4" fill-opacity="0.38"/>
<circle r="3.5" transform="matrix(-1 0 0 1 83.5 83.5)" fill="#C4C4C4" fill-opacity="0.38"/>
<circle r="3.5" transform="matrix(-1 0 0 1 83.5 103.5)" fill="#C4C4C4" fill-opacity="0.38"/>
<circle r="3.5" transform="matrix(-1 0 0 1 83.5 123.5)" fill="#C4C4C4" fill-opacity="0.38"/>
<circle r="3.5" transform="matrix(-1 0 0 1 103.5 83.5)" fill="#C4C4C4" fill-opacity="0.38"/>
<circle r="3.5" transform="matrix(-1 0 0 1 103.5 103.5)" fill="#C4C4C4" fill-opacity="0.38"/>
<circle r="3.5" transform="matrix(-1 0 0 1 103.5 123.5)" fill="#C4C4C4" fill-opacity="0.38"/>
<circle r="3.5" transform="matrix(-1 0 0 1 123.5 83.5)" fill="#C4C4C4" fill-opacity="0.38"/>
<circle r="3.5" transform="matrix(-1 0 0 1 123.5 103.5)" fill="#C4C4C4" fill-opacity="0.38"/>
<circle r="3.5" transform="matrix(-1 0 0 1 123.5 123.5)" fill="#C4C4C4" fill-opacity="0.38"/>
<circle r="3.5" transform="matrix(-1 0 0 1 143.5 83.5)" fill="#C4C4C4" fill-opacity="0.38"/>
<circle r="3.5" transform="matrix(-1 0 0 1 143.5 103.5)" fill="#C4C4C4" fill-opacity="0.38"/>
<circle r="3.5" transform="matrix(-1 0 0 1 143.5 123.5)" fill="#C4C4C4" fill-opacity="0.38"/>
<circle r="3.5" transform="matrix(-1 0 0 1 163.5 83.5)" fill="#C4C4C4" fill-opacity="0.38"/>
<circle r="3.5" transform="matrix(-1 0 0 1 163.5 103.5)" fill="#C4C4C4" fill-opacity="0.38"/>
<circle r="3.5" transform="matrix(-1 0 0 1 163.5 123.5)" fill="#C4C4C4" fill-opacity="0.38"/>
<circle r="3.5" transform="matrix(-1 0 0 1 183.5 83.5)" fill="#C4C4C4" fill-opacity="0.38"/>
<circle r="3.5" transform="matrix(-1 0 0 1 183.5 103.5)" fill="#C4C4C4" fill-opacity="0.38"/>
<circle r="3.5" transform="matrix(-1 0 0 1 183.5 123.5)" fill="#C4C4C4" fill-opacity="0.38"/>
<circle r="3.5" transform="matrix(-1 0 0 1 203.5 83.5)" fill="#C4C4C4" fill-opacity="0.38"/>
<circle r="3.5" transform="matrix(-1 0 0 1 203.5 103.5)" fill="#C4C4C4" fill-opacity="0.38"/>
<circle r="3.5" transform="matrix(-1 0 0 1 203.5 123.5)" fill="#C4C4C4" fill-opacity="0.38"/>
<circle r="3.5" transform="matrix(-1 0 0 1 223.5 83.5)" fill="#C4C4C4" fill-opacity="0.38"/>
<circle r="3.5" transform="matrix(-1 0 0 1 223.5 103.5)" fill="#C4C4C4" fill-opacity="0.38"/>
<circle r="3.5" transform="matrix(-1 0 0 1 223.5 123.5)" fill="#C4C4C4" fill-opacity="0.38"/>
<circle r="3.5" transform="matrix(-1 0 0 1 63.5 83.5)" fill="#C4C4C4" fill-opacity="0.38"/>
<circle r="3.5" transform="matrix(-1 0 0 1 63.5 103.5)" fill="#C4C4C4" fill-opacity="0.38"/>
<circle r="3.5" transform="matrix(-1 0 0 1 63.5 123.5)" fill="#C4C4C4" fill-opacity="0.38"/>
<circle r="3.5" transform="matrix(-1 0 0 1 43.5 83.5)" fill="#C4C4C4" fill-opacity="0.38"/>
<circle r="3.5" transform="matrix(-1 0 0 1 43.5 103.5)" fill="#C4C4C4" fill-opacity="0.38"/>
<circle r="3.5" transform="matrix(-1 0 0 1 43.5 123.5)" fill="#C4C4C4" fill-opacity="0.38"/>
<circle r="3.5" transform="matrix(-1 0 0 1 23.5 83.5)" fill="#C4C4C4" fill-opacity="0.38"/>
<circle r="3.5" transform="matrix(-1 0 0 1 23.5 103.5)" fill="#C4C4C4" fill-opacity="0.38"/>
<circle r="3.5" transform="matrix(-1 0 0 1 23.5 123.5)" fill="#C4C4C4" fill-opacity="0.38"/>
<circle r="3.5" transform="matrix(-1 0 0 1 3.5 83.5)" fill="#C4C4C4" fill-opacity="0.38"/>
<circle r="3.5" transform="matrix(-1 0 0 1 3.5 103.5)" fill="#C4C4C4" fill-opacity="0.38"/>
<circle r="3.5" transform="matrix(-1 0 0 1 3.5 123.5)" fill="#C4C4C4" fill-opacity="0.38"/>
</svg>
