<svg id="about_illustration" xmlns="http://www.w3.org/2000/svg" xmlns:xlink="http://www.w3.org/1999/xlink" viewBox="0 0 776 675" shape-rendering="geometricPrecision" text-rendering="geometricPrecision" width="776" height="675" style="background-color:transparent"><defs><filter id="about_illustration-bootstrap-filter" x="-400%" width="600%" y="-400%" height="600%"><feGaussianBlur id="about_illustration-bootstrap-filter-drop-shadow-0-blur" in="SourceAlpha" stdDeviation="13,13"/><feOffset id="about_illustration-bootstrap-filter-drop-shadow-0-offset" dx="0" dy="0" result="tmp"/><feFlood id="about_illustration-bootstrap-filter-drop-shadow-0-flood" flood-color="rgba(86,61,124,0.9)"/><feComposite id="about_illustration-bootstrap-filter-drop-shadow-0-composite" operator="in" in2="tmp"/><feMerge id="about_illustration-bootstrap-filter-drop-shadow-0-merge"><feMergeNode id="about_illustration-bootstrap-filter-drop-shadow-0-merge-node-1"/><feMergeNode id="about_illustration-bootstrap-filter-drop-shadow-0-merge-node-2" in="SourceGraphic"/></feMerge></filter><filter id="about_illustration-typescript-filter" x="-400%" width="600%" y="-400%" height="600%"><feGaussianBlur id="about_illustration-typescript-filter-drop-shadow-0-blur" in="SourceAlpha" stdDeviation="13,13"/><feOffset id="about_illustration-typescript-filter-drop-shadow-0-offset" dx="0" dy="0" result="tmp"/><feFlood id="about_illustration-typescript-filter-drop-shadow-0-flood" flood-color="rgb(50,120,198)"/><feComposite id="about_illustration-typescript-filter-drop-shadow-0-composite" operator="in" in2="tmp"/><feMerge id="about_illustration-typescript-filter-drop-shadow-0-merge"><feMergeNode id="about_illustration-typescript-filter-drop-shadow-0-merge-node-1"/><feMergeNode id="about_illustration-typescript-filter-drop-shadow-0-merge-node-2" in="SourceGraphic"/></feMerge></filter><filter id="about_illustration-redux-filter" x="-400%" width="600%" y="-400%" height="600%"><feGaussianBlur id="about_illustration-redux-filter-drop-shadow-0-blur" in="SourceAlpha" stdDeviation="13,13"/><feOffset id="about_illustration-redux-filter-drop-shadow-0-offset" dx="0" dy="0" result="tmp"/><feFlood id="about_illustration-redux-filter-drop-shadow-0-flood" flood-color="rgba(118,73,188,0.9)"/><feComposite id="about_illustration-redux-filter-drop-shadow-0-composite" operator="in" in2="tmp"/><feMerge id="about_illustration-redux-filter-drop-shadow-0-merge"><feMergeNode id="about_illustration-redux-filter-drop-shadow-0-merge-node-1"/><feMergeNode id="about_illustration-redux-filter-drop-shadow-0-merge-node-2" in="SourceGraphic"/></feMerge></filter></defs><g id="about_illustration-bootstrap" filter="url(#about_illustration-bootstrap-filter)"><path id="about_illustration-path1" d="M311,96.2635C311,100.537,314.464,104,318.736,104L363.263,104C367.537,104,371,100.536,371,96.2635L371,51.7367C371,47.4634,367.536,44,363.264,44L318.737,44C314.463,44,311,47.4638,311,51.7365L311,96.2633L311,96.2635Z" fill="rgb(86,61,124)" stroke="none" stroke-width="1"/><path id="about_illustration-path2" d="M335.881,70.5402L335.881,62.0434L343.36,62.0434C344.072,62.0434,344.759,62.1027,345.421,62.2215C346.082,62.3401,346.667,62.552,347.176,62.8573C347.685,63.1627,348.092,63.5867,348.397,64.1293C348.702,64.6721,348.855,65.3675,348.855,66.2152C348.855,67.7417,348.397,68.8442,347.481,69.5225C346.565,70.201,345.395,70.5402,343.97,70.5402L335.881,70.5402L335.881,70.5402ZM327.893,55.8359L327.893,92.1641L345.497,92.1641C347.125,92.1641,348.711,91.9606,350.254,91.5535C351.798,91.1464,353.171,90.519,354.376,89.671C355.58,88.823,356.538,87.729,357.25,86.3893C357.963,85.0494,358.319,83.4636,358.319,81.632C358.319,79.3592,357.767,77.4174,356.665,75.8063C355.563,74.195,353.892,73.0672,351.653,72.4227C353.282,71.6427,354.511,70.6419,355.342,69.4208C356.173,68.1997,356.589,66.6734,356.589,64.8416C356.589,63.1456,356.309,61.7211,355.749,60.5677C355.19,59.4146,354.401,58.4902,353.383,57.7948C352.366,57.0995,351.145,56.5991,349.72,56.2939C348.295,55.9885,346.718,55.8359,344.988,55.8359L327.893,55.8359L327.893,55.8359ZM335.881,85.9566L335.881,75.9842L344.581,75.9842C346.311,75.9842,347.702,76.3827,348.753,77.18C349.805,77.9771,350.331,79.3084,350.331,81.174C350.331,82.1239,350.169,82.9039,349.847,83.5145C349.525,84.125,349.093,84.6085,348.55,84.9645C348.007,85.3208,347.379,85.5751,346.667,85.7279C345.955,85.8802,345.209,85.9566,344.428,85.9566L335.881,85.9566L335.881,85.9566Z" fill="rgb(255,255,255)" stroke="none" stroke-width="1"/></g><g id="about_illustration-typescript" filter="url(#about_illustration-typescript-filter)"><path id="about_illustration-path3" d="M105.189,431L50.8114,431C49.2587,431,48,432.258,48,433.811L48,488.188C48,489.741,49.2587,491,50.8114,491L105.189,491C106.741,491,108,489.741,108,488.188L108,433.811C108,432.258,106.741,431,105.189,431Z" fill="rgb(49,120,198)" stroke="none" stroke-width="1"/><path id="about_illustration-path4" d="M82.8106,477.626L82.8106,484.2C84.0051,484.79,85.2781,485.205,86.5906,485.433C88.1073,485.713,89.6469,485.85,91.1892,485.844C92.6924,485.851,94.1921,485.7,95.6635,485.392C96.9845,485.125,98.2449,484.616,99.3813,483.892C100.436,483.211,101.306,482.279,101.912,481.179C102.998,478.902,103.141,476.288,102.311,473.906C101.96,473.015,101.438,472.202,100.774,471.513C100.061,470.779,99.2518,470.147,98.3678,469.633C97.35,469.037,96.2925,468.512,95.2028,468.061C94.3456,467.705,93.5742,467.359,92.8885,467.023C92.2794,466.732,91.6966,466.388,91.1463,465.997C90.7154,465.695,90.3411,465.319,90.0406,464.887C89.781,464.495,89.6459,464.033,89.6528,463.563C89.647,463.13,89.7677,462.705,89.9999,462.339C90.2521,461.957,90.5886,461.637,90.9835,461.405C91.4662,461.121,91.9915,460.916,92.5392,460.798C93.2116,460.649,93.899,460.577,94.5878,460.584C95.1671,460.586,95.7455,460.628,96.3192,460.708C96.9387,460.792,97.5516,460.919,98.1535,461.088C98.7657,461.257,99.3645,461.472,99.9449,461.731C100.508,461.982,101.047,462.284,101.554,462.635L101.554,456.5C100.498,456.1,99.4027,455.813,98.2863,455.643C96.9383,455.447,95.5771,455.354,94.2149,455.366C92.7259,455.358,91.2412,455.527,89.792,455.87C88.4822,456.169,87.2368,456.701,86.1149,457.441C85.0728,458.135,84.2123,459.069,83.6056,460.164C82.9627,461.381,82.6446,462.742,82.682,464.118C82.6346,465.936,83.2336,467.713,84.3728,469.132C85.7703,470.705,87.5326,471.911,89.5049,472.644C90.4049,473.015,91.2442,473.379,92.0228,473.735C92.7252,474.047,93.4004,474.418,94.0413,474.843C94.5583,475.179,95.0123,475.603,95.3828,476.096C95.7085,476.543,95.8814,477.084,95.8756,477.637C95.8786,478.051,95.7721,478.459,95.567,478.82C95.3392,479.207,95.0189,479.532,94.6349,479.765C94.1544,480.058,93.6287,480.269,93.0792,480.39C92.3633,480.55,91.6312,480.626,90.8978,480.615C89.4584,480.613,88.0306,480.359,86.6785,479.865C85.2659,479.356,83.956,478.597,82.8106,477.626L82.8106,477.626ZM71.7663,461.259L80.3378,461.259L80.3378,455.844L56.4385,455.844L56.4385,461.259L64.9713,461.259L64.9713,485.375L71.7663,485.375L71.7663,461.259Z" clip-rule="evenodd" fill="rgb(255,255,255)" fill-rule="evenodd" stroke="none" stroke-width="1"/></g><g id="about_illustration-redux" transform="matrix(1 0 0 1 0 -0.5)" filter="url(#about_illustration-redux-filter)"><path id="about_illustration-path5" d="M704.66,198.586C707.465,198.3,709.592,195.921,709.495,193.066C709.399,190.21,706.981,187.926,704.08,187.926L703.886,187.926C700.888,188.021,698.567,190.496,698.664,193.446C698.76,194.874,699.341,196.111,700.211,196.968C696.923,203.345,691.894,208.008,684.35,211.91C679.224,214.575,673.905,215.527,668.586,214.861C664.234,214.29,660.849,212.386,658.721,209.245C655.626,204.582,655.336,199.537,657.948,194.493C659.785,190.877,662.686,188.212,664.524,186.879C664.137,185.642,663.557,183.548,663.267,182.026C649.243,192.019,650.694,205.534,654.949,211.91C658.141,216.669,664.621,219.619,671.778,219.619C673.712,219.619,675.646,219.429,677.58,218.953C689.96,216.574,699.341,209.34,704.66,198.586ZM721.682,186.784C714.331,178.314,703.499,173.65,691.12,173.65L689.573,173.65C688.702,171.937,686.865,170.795,684.834,170.795L684.64,170.795C681.642,170.89,679.321,173.364,679.418,176.315C679.515,179.17,681.932,181.454,684.834,181.454L685.027,181.454C687.155,181.359,688.992,180.027,689.766,178.218L691.507,178.218C698.857,178.218,705.82,180.312,712.107,184.405C716.943,187.546,720.424,191.638,722.358,196.587C724.003,200.584,723.906,204.486,722.165,207.818C719.457,212.862,714.912,215.622,708.915,215.622C705.047,215.622,701.372,214.48,699.437,213.623C698.374,214.575,696.439,216.098,695.085,217.05C699.244,218.953,703.499,220,707.561,220C716.846,220,723.713,214.956,726.324,209.912C729.128,204.391,728.935,194.874,721.682,186.784ZM672.551,200.203C672.648,203.059,675.066,205.343,677.967,205.343L678.161,205.343C681.159,205.248,683.48,202.773,683.383,199.823C683.286,196.967,680.868,194.683,677.967,194.683L677.774,194.683C677.58,194.683,677.29,194.683,677.097,194.778C673.132,188.307,671.487,181.264,672.068,173.65C672.454,167.939,674.389,162.99,677.774,158.898C680.578,155.376,685.994,153.663,689.67,153.568C699.921,153.378,704.273,165.941,704.563,170.985C705.82,171.27,707.948,171.937,709.399,172.413C708.238,156.995,698.567,149,689.283,149C680.578,149,672.551,155.186,669.359,164.323C664.911,176.505,667.812,188.212,673.228,197.444C672.745,198.11,672.454,199.156,672.551,200.203Z" fill="rgb(118,74,188)" stroke="none" stroke-width="1"/></g><script><![CDATA[(function(s,i,u,o,w,d,t,n,x,e,p){w[o]=w[o]||{};w[o][s]=w[o][s]||[];w[o][s].push(i);e=d.createElementNS(n,t);e.async=true;e.setAttributeNS(x,'href',[u,s,'.','j','s'].join(''));e.setAttributeNS(null,'src',[u,s,'.','j','s'].join(''));p=d.getElementsByTagName(t)[0];p.parentNode.insertBefore(e,p);})('5c7f360c',{"root":"about_illustration","animations":[{"elements":{"about_illustration-bootstrap":{"transform":{"data":{"t":{"x":-341,"y":-74}},"keys":{"o":[{"t":0,"v":{"x":341,"y":74,"type":"corner"}},{"t":1000,"v":{"x":341,"y":64,"type":"corner"}},{"t":2000,"v":{"x":341,"y":74,"type":"corner"}}]}}},"about_illustration-typescript":{"transform":{"data":{"t":{"x":-78,"y":-461}},"keys":{"o":[{"t":0,"v":{"x":78,"y":461,"type":"corner"}},{"t":1000,"v":{"x":78,"y":451,"type":"corner"}},{"t":2000,"v":{"x":78,"y":461,"type":"corner"}}]}}},"about_illustration-redux":{"transform":{"data":{"t":{"x":-689.999847,"y":-184.5}},"keys":{"o":[{"t":0,"v":{"x":689.999847,"y":184,"type":"corner"}},{"t":1000,"v":{"x":689.999847,"y":174,"type":"corner"}},{"t":2000,"v":{"x":689.999847,"y":184,"type":"corner"}}]}}}},"s":"MPDA1M0s4ZTM1STc3ODNg4NTc0ODc3YzgyODEIzNUo0ZDQ1NDM0MzQzFM2YzNUw3NzdjODU3OGDc2ODc3YzgyODEzNTXRkNDQzZjM1N2M4NzcM4ODU3NDg3N2M4MjgxQWDg2MzU0ZDQzM2ZNMCzU3OTdjN2Y3ZkwzNTMRkNDQzZjM1NzQ3ZjgT3Nzg4NTgxSjc0ODdFONzgzNTRkNzk3NEU3ZNjg2NzgzZkIzNTg2ODJM3OEU3ODc3MzU0ZDQE0OTA/"}],"options":"MHDAxMDkxMzg4OThhNzRc4ODhhVDM4NTAzODgYyODU3NzdhMzg5Mw|"},'https://cdn.svgator.com/ply/','__SVGATOR_PLAYER__',window,document,'script','http://www.w3.org/2000/svg','http://www.w3.org/1999/xlink')]]></script></svg>